<?xml version="1.0" standalone="no"?>
<!DOCTYPE svg PUBLIC "-//W3C//DTD SVG 20010904//EN"
 "http://www.w3.org/TR/2001/REC-SVG-20010904/DTD/svg10.dtd">
<svg version="1.0" xmlns="http://www.w3.org/2000/svg"
 width="307.000000pt" height="307.000000pt" viewBox="0 0 307.000000 307.000000"
 preserveAspectRatio="xMidYMid meet">
<metadata>
Created by potrace 1.14, written by Peter Selinger 2001-2017
</metadata>
<g transform="translate(0.000000,307.000000) scale(0.100000,-0.100000)"
fill="#000000" stroke="none">
<path d="M5 2111 l0 -136 198 -3 197 -2 0 -565 0 -565 138 0 139 0 0 543 c1
298 2 552 2 565 l1 22 198 0 197 0 -2 127 c-1 71 -2 133 -2 139 -1 8 -147 11
-534 11 l-533 0 1 -136z"/>
<path d="M1217 2237 c-13 -11 -15 -99 -12 -697 1 -377 3 -688 4 -692 0 -5 201
-8 445 -8 343 0 446 3 454 12 7 9 -1 35 -26 88 -19 41 -36 77 -37 80 -6 18
-30 72 -50 115 -12 28 -29 65 -36 83 -8 17 -17 32 -20 32 -3 0 -6 6 -6 13 0 6
-17 49 -38 94 l-37 82 60 58 c104 101 149 210 139 343 -3 41 -11 89 -18 105
-7 17 -11 34 -10 38 3 16 -72 118 -117 158 -42 37 -81 59 -159 91 -41 16 -516
20 -536 5z m558 -67 c37 -14 79 -42 112 -73 94 -89 128 -176 121 -309 -4 -68
-10 -94 -36 -143 -17 -33 -42 -72 -56 -86 -14 -15 -22 -30 -18 -35 4 -4 2 -4
-4 -1 -7 4 -18 0 -25 -9 -7 -8 -25 -22 -41 -30 -32 -17 -32 -22 7 -109 13 -27
66 -146 119 -262 53 -117 96 -215 96 -218 0 -3 -180 -5 -400 -5 l-400 0 0 656
0 656 233 -4 c215 -4 236 -6 292 -28z"/>
<path d="M1527 2091 c9 -68 -36 -163 -125 -261 -123 -134 -132 -262 -26 -360
41 -38 153 -100 180 -100 7 0 9 17 6 50 -5 58 7 95 56 165 19 27 49 79 66 115
27 56 31 76 31 145 0 87 -20 141 -73 198 -25 27 -105 87 -115 87 -3 0 -3 -17
0 -39z"/>
<path d="M1761 1799 c-1 -49 -33 -137 -67 -189 -79 -117 -86 -133 -89 -175 -2
-25 1 -47 6 -51 13 -8 144 91 173 130 53 71 56 159 8 258 -30 63 -30 63 -31
27z"/>
<path d="M2215 1546 l0 -701 138 -3 137 -3 0 284 0 283 283 0 282 0 3 137 3
137 -286 0 -285 0 0 145 0 145 285 0 285 0 0 138 0 138 -422 1 -423 0 0 -701z"/>
</g>
</svg>
